<svg version="1.1" id="Layer_1" xmlns="http://www.w3.org/2000/svg" xmlns:xlink="http://www.w3.org/1999/xlink" x="0px" y="0px"
	 width="100%" viewBox="0 0 415 417" enable-background="new 0 0 415 417" xml:space="preserve">
<path fill="#FFFFFF" opacity="1.000000" stroke="none" 
	d="
M140.000000,1.000000 
	C186.020889,1.000000 232.041794,1.000000 278.698822,1.442373 
	C279.349457,6.712001 279.372314,11.539248 279.377136,16.366512 
	C279.417877,57.148968 279.455353,97.931427 279.428406,139.091919 
	C279.340179,139.981247 279.317291,140.492538 279.147644,141.214020 
	C278.945618,141.586014 278.890442,141.747787 278.535614,141.914246 
	C278.036438,141.927933 277.836853,141.936966 277.553436,141.576553 
	C276.142517,140.832733 274.815735,140.132385 273.488342,140.131256 
	C228.976273,140.093216 184.464127,140.121841 139.877823,139.667328 
	C139.846344,137.200348 139.925140,135.206848 139.926483,133.213272 
	C139.956161,89.142181 139.977264,45.071091 140.000000,1.000000 
z"/>
<path fill="#FFFFFF" opacity="1.000000" stroke="none" 
	d="
M279.000000,418.000000 
	C232.979111,418.000000 186.958206,418.000000 140.442307,417.531921 
	C139.943604,373.900940 139.934906,330.737976 139.953751,287.575043 
	C139.954544,285.761322 140.211655,283.947693 140.610718,282.151215 
	C141.216873,282.120087 141.561707,282.071808 142.380951,282.014038 
	C152.656754,281.998535 162.458099,281.987732 172.259460,281.987305 
	C205.650574,281.985931 239.041779,282.014496 272.432526,281.904541 
	C273.958771,281.899536 275.480927,280.659912 277.060791,279.802734 
	C277.116608,279.610107 277.186157,279.215088 277.476715,279.155945 
	C278.160522,279.062714 278.553741,279.028656 279.060730,279.452881 
	C279.098907,281.070435 278.957245,282.229675 278.957428,283.388885 
	C278.963562,328.259247 278.982605,373.129639 279.000000,418.000000 
z"/>
<path fill="#000000" opacity="1.000000" stroke="none" 
	d="
M279.493835,138.713867 
	C279.455353,97.931427 279.417877,57.148968 279.377136,16.366512 
	C279.372314,11.539248 279.349457,6.712001 279.167480,1.442373 
	C324.593903,1.000000 370.187836,1.000000 416.000000,1.000000 
	C416.000000,46.687328 416.000000,92.375008 415.531433,138.521103 
	C371.861298,138.977173 328.659698,138.978241 285.458130,138.961502 
	C283.470001,138.960724 281.481934,138.800064 279.493835,138.713867 
z"/>
<path fill="#D4EAFF" opacity="1.000000" stroke="none" 
	d="
M1.000000,280.000000 
	C1.000000,234.312439 1.000000,188.624878 1.468633,142.473969 
	C45.070766,142.010117 88.204277,142.020081 131.337738,141.974442 
	C133.256485,141.972412 135.174728,141.464172 137.411072,141.573120 
	C137.841904,155.407532 138.014160,168.860336 138.055954,182.313553 
	C138.154068,213.897629 138.189758,245.481888 138.179581,277.423737 
	C138.052231,278.507263 137.996033,279.233154 137.475555,279.984680 
	C91.674187,280.006927 46.337093,280.003479 1.000000,280.000000 
z"/>
<path fill="#FFFFFF" opacity="1.000000" stroke="none" 
	d="
M138.000000,418.000000 
	C92.406624,418.000000 46.813244,418.000000 1.000000,418.000000 
	C1.000000,372.979340 1.000000,327.958344 1.468641,282.464294 
	C47.165829,281.991272 92.394371,281.991272 138.000000,281.991272 
	C138.000000,327.780243 138.000000,372.890137 138.000000,418.000000 
z"/>
<path fill="#D4EAFF" opacity="1.000000" stroke="none" 
	d="
M416.000000,142.000000 
	C416.000000,187.354233 416.000000,232.708450 415.531342,278.530731 
	C370.377777,278.997528 325.692902,278.996277 280.819824,279.001770 
	C280.631683,279.008484 280.264526,279.092163 280.532562,278.676849 
	C280.800598,232.979889 280.800598,187.698242 280.800598,141.837982 
	C284.698914,141.837982 287.822144,141.837982 291.413513,141.902313 
	C333.254425,141.977753 374.627228,141.988876 416.000000,142.000000 
z"/>
<path fill="#FEFEFE" opacity="1.000000" stroke="none" 
	d="
M416.000000,282.000000 
	C416.000000,327.260040 416.000000,372.520081 416.000000,418.000000 
	C371.312683,418.000000 326.625000,418.000000 281.436401,417.532227 
	C280.935455,372.196136 280.935455,327.327789 280.935455,282.112091 
	C284.422668,282.112091 287.374878,282.112091 290.702515,282.090668 
	C295.081940,281.415771 299.081116,280.234100 303.090729,280.197388 
	C323.896606,280.006989 344.708832,279.867615 365.511658,280.184631 
	C382.346436,280.441162 399.170929,281.369598 416.000000,282.000000 
M353.394043,332.950592 
	C349.403870,329.603729 346.132507,330.443115 344.893555,335.176971 
	C342.974335,342.510071 341.101624,349.855347 339.209167,357.195465 
	C336.564606,350.532318 335.109436,343.949860 333.658813,337.366364 
	C332.096436,330.275574 331.771454,330.081512 323.843689,331.967438 
	C326.910065,343.524933 330.087006,355.048462 332.962555,366.646698 
	C333.703156,369.633881 334.938354,370.646667 338.006042,370.669159 
	C341.078522,370.691620 342.375732,369.662170 343.099731,366.708893 
	C344.829254,359.653778 346.909729,352.684692 348.848511,345.680847 
	C350.392151,347.282898 350.892822,348.821930 351.332397,350.378235 
	C352.962250,356.148895 354.378082,361.992340 356.335754,367.648804 
	C356.783936,368.943756 359.022949,370.257690 360.528168,370.371979 
	C362.094513,370.490936 364.913757,369.498169 365.223236,368.425415 
	C368.717346,356.314575 371.833862,344.094818 375.056549,331.885651 
	C367.036804,330.192322 366.796906,330.352264 365.261108,337.478363 
	C363.847443,344.037537 362.396393,350.588715 360.961853,357.143402 
	C360.573853,357.154205 360.185852,357.165009 359.797821,357.175781 
	C357.739349,349.355713 355.680878,341.535645 353.394043,332.950592 
z"/>
<path fill="#FFFFFE" opacity="1.000000" stroke="none" 
	d="
M1.000000,140.000000 
	C1.000000,93.740196 1.000000,47.480389 1.000000,1.000000 
	C46.353989,1.000000 91.708336,1.000000 137.506439,1.468107 
	C137.946518,46.233913 137.937271,90.531616 137.957504,134.829300 
	C137.958420,136.816727 138.226868,138.804016 138.047134,140.730835 
	C137.504990,140.654709 137.286423,140.639114 136.655609,140.377228 
	C91.162254,140.087296 46.081127,140.043655 1.000000,140.000000 
M87.454201,63.755260 
	C91.366455,58.031479 89.303612,50.746117 83.120827,48.534847 
	C78.951279,47.043606 74.812798,44.627373 70.570473,44.414093 
	C66.350967,44.201965 61.829216,45.761520 57.794537,47.411266 
	C54.365639,48.813316 50.364346,50.277637 49.895248,55.154587 
	C49.406857,60.232071 48.250004,65.274841 48.130131,70.350372 
	C47.993835,76.121361 48.682228,81.911819 48.946518,86.543663 
	C52.244007,88.049973 55.794926,88.601677 56.202229,90.042221 
	C58.027260,96.496910 61.886501,97.017342 67.252342,95.175667 
	C67.956924,94.933830 68.869171,95.306679 69.686417,95.381905 
	C76.584808,96.016853 81.922501,91.758003 87.833839,89.385849 
	C88.631142,89.065903 88.767891,86.753288 88.952812,85.329903 
	C89.283264,82.786255 89.454620,80.219437 89.616241,77.657501 
	C89.686935,76.536858 90.017281,74.764450 89.466591,74.379387 
	C85.390678,71.529343 86.302200,67.556953 86.835213,63.882473 
	C86.835213,63.882473 86.620689,63.710754 87.454201,63.755260 
z"/>
<path fill="#808080" opacity="1.000000" stroke="none" 
	d="
M138.333328,418.000000 
	C138.000000,372.890137 138.000000,327.780243 138.000000,281.991272 
	C92.394371,281.991272 47.165829,281.991272 1.468641,281.995636 
	C1.000000,281.555542 1.000000,281.111115 1.000000,280.333313 
	C46.337093,280.003479 91.674187,280.006927 137.764526,280.004333 
	C138.710938,280.005035 138.904068,280.011749 139.360672,280.213806 
	C139.865891,280.984100 140.107620,281.559082 140.349365,282.134033 
	C140.211655,283.947693 139.954544,285.761322 139.953751,287.575043 
	C139.934906,330.737976 139.943604,373.900940 139.973648,417.531921 
	C139.555557,418.000000 139.111099,418.000000 138.333328,418.000000 
z"/>
<path fill="#76797E" opacity="1.000000" stroke="none" 
	d="
M416.000000,141.625000 
	C374.627228,141.988876 333.254425,141.977753 291.108459,141.642487 
	C286.654968,141.213501 282.974701,141.108658 279.294434,141.003815 
	C279.317291,140.492538 279.340179,139.981247 279.428436,139.091919 
	C281.481934,138.800064 283.470001,138.960724 285.458130,138.961502 
	C328.659698,138.978241 371.861298,138.977173 415.531433,138.989761 
	C416.000000,139.750000 416.000000,140.500000 416.000000,141.625000 
z"/>
<path fill="#7F7F7F" opacity="1.000000" stroke="none" 
	d="
M290.327087,282.112091 
	C287.374878,282.112091 284.422668,282.112091 280.935455,282.112091 
	C280.935455,327.327789 280.935455,372.196136 280.967712,417.532227 
	C280.555542,418.000000 280.111115,418.000000 279.333313,418.000000 
	C278.982605,373.129639 278.963562,328.259247 278.957428,283.388885 
	C278.957245,282.229675 279.098907,281.070435 279.155029,279.443054 
	C279.135651,278.974915 279.317200,278.919922 279.478821,278.940765 
	C279.857758,278.960785 280.065796,279.004303 280.264526,279.092163 
	C280.264526,279.092163 280.631683,279.008484 281.018860,279.368469 
	C283.676666,279.820862 285.974915,279.741028 288.203278,280.097748 
	C288.998322,280.225006 289.624084,281.409912 290.327087,282.112091 
z"/>
<path fill="#808080" opacity="1.000000" stroke="none" 
	d="
M138.370697,140.791367 
	C138.226868,138.804016 137.958420,136.816727 137.957504,134.829300 
	C137.937271,90.531616 137.946518,46.233913 137.975098,1.468107 
	C138.444443,1.000000 138.888901,1.000000 139.666672,1.000000 
	C139.977264,45.071091 139.956161,89.142181 139.926483,133.213272 
	C139.925140,135.206848 139.846344,137.200348 139.785706,139.843277 
	C139.302078,140.592239 138.836395,140.691803 138.370697,140.791367 
z"/>
<path fill="#747B82" opacity="1.000000" stroke="none" 
	d="
M1.000000,140.333344 
	C46.081127,140.043655 91.162254,140.087296 136.675217,140.471649 
	C137.107056,140.812347 137.093201,141.191711 137.093201,141.191711 
	C135.174728,141.464172 133.256485,141.972412 131.337738,141.974442 
	C88.204277,142.020081 45.070766,142.010117 1.468633,142.005310 
	C1.000000,141.555557 1.000000,141.111099 1.000000,140.333344 
z"/>
<path fill="#ECF5FB" opacity="1.000000" stroke="none" 
	d="
M290.702515,282.090668 
	C289.624084,281.409912 288.998322,280.225006 288.203278,280.097748 
	C285.974915,279.741028 283.676666,279.820862 281.207001,279.361755 
	C325.692902,278.996277 370.377777,278.997528 415.531342,278.999390 
	C416.000000,279.750000 416.000000,280.500000 416.000000,281.625000 
	C399.170929,281.369598 382.346436,280.441162 365.511658,280.184631 
	C344.708832,279.867615 323.896606,280.006989 303.090729,280.197388 
	C299.081116,280.234100 295.081940,281.415771 290.702515,282.090668 
z"/>
<path fill="#B563CE" opacity="1.000000" stroke="none" 
	d="
M279.041321,278.984741 
	C278.553741,279.028656 278.160522,279.062714 276.996521,279.080200 
	C230.849503,279.016785 185.473267,278.969910 140.103668,278.459167 
	C140.110291,232.818542 140.110291,187.641769 140.110291,142.103485 
	C146.057068,142.103485 151.195663,142.109070 156.334274,142.102600 
	C196.768600,142.051697 237.202942,141.998489 277.637268,141.946014 
	C277.836853,141.936966 278.036438,141.927933 278.585541,142.384521 
	C278.948608,186.058411 278.957306,229.266678 278.990173,272.474945 
	C278.991821,274.623322 279.203400,276.771606 279.317200,278.919922 
	C279.317200,278.919922 279.135651,278.974915 279.041321,278.984741 
M201.534805,191.690079 
	C200.945374,191.975861 200.303329,192.186813 199.774460,192.558716 
	C192.677292,197.549026 191.830444,204.717697 191.754257,212.761032 
	C191.689423,219.604721 193.676788,224.745529 199.257385,228.375381 
	C205.111267,232.182999 211.495819,232.547638 217.842392,229.832718 
	C223.238785,227.524277 226.337265,223.299728 226.817841,217.280716 
	C222.525848,216.444092 218.896103,216.126678 216.757446,221.002014 
	C216.112274,222.472778 213.676697,223.593719 211.859543,224.024963 
	C207.974426,224.947006 204.672607,223.622971 202.351089,220.193924 
	C199.155869,215.474396 199.093765,206.568100 202.246170,201.613098 
	C204.490402,198.085587 208.018982,196.438812 211.654465,197.826355 
	C214.770767,199.015747 217.247192,201.881744 220.006592,204.006271 
	C219.786926,204.311096 219.567261,204.615921 219.347610,204.920746 
	C221.799454,204.920746 224.251297,204.920746 227.354874,204.920746 
	C226.838455,203.067963 226.666061,201.465240 225.975616,200.130508 
	C221.128647,190.760742 213.575241,187.968063 201.534805,191.690079 
z"/>
<path fill="#715B7B" opacity="1.000000" stroke="none" 
	d="
M277.553436,141.576538 
	C237.202942,141.998489 196.768600,142.051697 156.334274,142.102600 
	C151.195663,142.109070 146.057068,142.103485 140.110291,142.103485 
	C140.110291,187.641769 140.110291,232.818542 139.841736,278.515961 
	C139.396744,279.057800 139.220337,279.078979 139.022232,278.815308 
	C138.750595,278.042297 138.500656,277.554199 138.250717,277.066071 
	C138.189758,245.481888 138.154068,213.897629 138.055954,182.313553 
	C138.014160,168.860336 137.841904,155.407532 137.411072,141.573120 
	C137.093201,141.191711 137.107056,140.812347 137.087463,140.717926 
	C137.286423,140.639114 137.504990,140.654709 138.047134,140.730835 
	C138.836395,140.691803 139.302078,140.592239 139.859894,140.316711 
	C184.464127,140.121841 228.976273,140.093216 273.488342,140.131256 
	C274.815735,140.132385 276.142517,140.832733 277.553436,141.576538 
z"/>
<path fill="#747980" opacity="1.000000" stroke="none" 
	d="
M279.478821,278.940765 
	C279.203400,276.771606 278.991821,274.623322 278.990173,272.474945 
	C278.957306,229.266678 278.948608,186.058411 278.885162,142.379852 
	C278.890442,141.747787 278.945618,141.586014 279.147644,141.214020 
	C282.974701,141.108658 286.654968,141.213501 290.640320,141.578156 
	C287.822144,141.837982 284.698914,141.837982 280.800598,141.837982 
	C280.800598,187.698242 280.800598,232.979889 280.532562,278.676849 
	C280.065796,279.004303 279.857758,278.960785 279.478821,278.940765 
z"/>
<path fill="#827D85" opacity="1.000000" stroke="none" 
	d="
M277.005005,279.995361 
	C275.480927,280.659912 273.958771,281.899536 272.432526,281.904541 
	C239.041779,282.014496 205.650574,281.985931 172.259460,281.987305 
	C162.458099,281.987732 152.656754,281.998535 142.360229,281.576233 
	C143.693268,280.760193 145.520996,280.036621 147.349731,280.034088 
	C190.568100,279.974152 233.786560,279.991852 277.005005,279.995361 
z"/>
<path fill="#D2B3DC" opacity="1.000000" stroke="none" 
	d="
M277.060791,279.802734 
	C233.786560,279.991852 190.568100,279.974152 147.349731,280.034088 
	C145.520996,280.036621 143.693268,280.760193 141.885803,281.585693 
	C141.561707,282.071808 141.216873,282.120087 140.610703,282.151215 
	C140.107620,281.559082 139.865891,280.984100 139.320084,279.985748 
	C139.016006,279.562347 139.043945,279.100159 139.043945,279.100159 
	C139.220337,279.078979 139.396744,279.057800 139.835098,278.979797 
	C185.473267,278.969910 230.849503,279.016785 276.705933,279.139374 
	C277.186157,279.215088 277.116608,279.610107 277.060791,279.802734 
z"/>
<path fill="#6C5778" opacity="1.000000" stroke="none" 
	d="
M139.022232,278.815308 
	C139.043945,279.100159 139.016006,279.562347 139.056595,279.790405 
	C138.904068,280.011749 138.710938,280.005035 138.228806,279.978668 
	C137.996033,279.233154 138.052231,278.507263 138.179581,277.423737 
	C138.500656,277.554199 138.750595,278.042297 139.022232,278.815308 
z"/>
<path fill="#121212" opacity="1.000000" stroke="none" 
	d="
M353.508240,333.333069 
	C355.680878,341.535645 357.739349,349.355713 359.797821,357.175781 
	C360.185852,357.165009 360.573853,357.154205 360.961853,357.143402 
	C362.396393,350.588715 363.847443,344.037537 365.261108,337.478363 
	C366.796906,330.352264 367.036804,330.192322 375.056549,331.885651 
	C371.833862,344.094818 368.717346,356.314575 365.223236,368.425415 
	C364.913757,369.498169 362.094513,370.490936 360.528168,370.371979 
	C359.022949,370.257690 356.783936,368.943756 356.335754,367.648804 
	C354.378082,361.992340 352.962250,356.148895 351.332397,350.378235 
	C350.892822,348.821930 350.392151,347.282898 348.848511,345.680847 
	C346.909729,352.684692 344.829254,359.653778 343.099731,366.708893 
	C342.375732,369.662170 341.078522,370.691620 338.006042,370.669159 
	C334.938354,370.646667 333.703156,369.633881 332.962555,366.646698 
	C330.087006,355.048462 326.910065,343.524933 323.843689,331.967438 
	C331.771454,330.081512 332.096436,330.275574 333.658813,337.366364 
	C335.109436,343.949860 336.564606,350.532318 339.209167,357.195465 
	C341.101624,349.855347 342.974335,342.510071 344.893555,335.176971 
	C346.132507,330.443115 349.403870,329.603729 353.508240,333.333069 
z"/>
<path fill="#FEFEFE" opacity="1.000000" stroke="none" 
	d="
M86.673729,63.660095 
	C86.302200,67.556953 85.390678,71.529343 89.466591,74.379387 
	C90.017281,74.764450 89.686935,76.536858 89.616241,77.657501 
	C89.454620,80.219437 89.283264,82.786255 88.952812,85.329903 
	C88.767891,86.753288 88.631142,89.065903 87.833839,89.385849 
	C81.922501,91.758003 76.584808,96.016853 69.686417,95.381905 
	C68.869171,95.306679 67.956924,94.933830 67.252342,95.175667 
	C61.886501,97.017342 58.027260,96.496910 56.202229,90.042221 
	C55.794926,88.601677 52.244007,88.049973 48.946518,86.543663 
	C48.682228,81.911819 47.993835,76.121361 48.130131,70.350372 
	C48.250004,65.274841 49.406857,60.232071 49.895248,55.154587 
	C50.364346,50.277637 54.365639,48.813316 57.794537,47.411266 
	C61.829216,45.761520 66.350967,44.201965 70.570473,44.414093 
	C74.812798,44.627373 78.951279,47.043606 83.120827,48.534847 
	C89.303612,50.746117 91.366455,58.031479 87.011246,63.372696 
	C85.293274,55.144951 80.235962,50.331402 72.289818,49.399902 
	C63.635181,48.385353 56.155025,52.394539 53.224297,59.853504 
	C50.622601,66.475052 50.612926,73.225174 53.226109,79.844276 
	C56.287243,87.598030 64.300919,91.646019 73.279854,90.199005 
	C80.933113,88.965630 85.744507,84.070457 86.359161,76.891953 
	C80.565239,75.603691 80.432747,75.644020 77.380592,79.624611 
	C73.377899,84.844887 65.431717,84.680916 62.194904,78.983154 
	C58.851490,73.097740 58.837837,66.766327 62.122967,60.844048 
	C65.252357,55.202518 73.459099,54.382118 76.691208,59.845459 
	C79.417694,64.454140 82.723618,64.066841 86.673729,63.660095 
z"/>
<path fill="#0A040D" opacity="1.000000" stroke="none" 
	d="
M201.849823,191.443451 
	C213.575241,187.968063 221.128647,190.760742 225.975616,200.130508 
	C226.666061,201.465240 226.838455,203.067963 227.354874,204.920746 
	C224.251297,204.920746 221.799454,204.920746 219.347610,204.920746 
	C219.567261,204.615921 219.786926,204.311096 220.006592,204.006271 
	C217.247192,201.881744 214.770767,199.015747 211.654465,197.826355 
	C208.018982,196.438812 204.490402,198.085587 202.246170,201.613098 
	C199.093765,206.568100 199.155869,215.474396 202.351089,220.193924 
	C204.672607,223.622971 207.974426,224.947006 211.859543,224.024963 
	C213.676697,223.593719 216.112274,222.472778 216.757446,221.002014 
	C218.896103,216.126678 222.525848,216.444092 226.817841,217.280716 
	C226.337265,223.299728 223.238785,227.524277 217.842392,229.832718 
	C211.495819,232.547638 205.111267,232.182999 199.257385,228.375381 
	C193.676788,224.745529 191.689423,219.604721 191.754257,212.761032 
	C191.830444,204.717697 192.677292,197.549026 199.774460,192.558716 
	C200.303329,192.186813 200.945374,191.975861 201.849823,191.443451 
z"/>
<path fill="#141414" opacity="1.000000" stroke="none" 
	d="
M86.754471,63.771286 
	C82.723618,64.066841 79.417694,64.454140 76.691208,59.845459 
	C73.459099,54.382118 65.252357,55.202518 62.122967,60.844048 
	C58.837837,66.766327 58.851490,73.097740 62.194904,78.983154 
	C65.431717,84.680916 73.377899,84.844887 77.380592,79.624611 
	C80.432747,75.644020 80.565239,75.603691 86.359161,76.891953 
	C85.744507,84.070457 80.933113,88.965630 73.279854,90.199005 
	C64.300919,91.646019 56.287243,87.598030 53.226109,79.844276 
	C50.612926,73.225174 50.622601,66.475052 53.224297,59.853504 
	C56.155025,52.394539 63.635181,48.385353 72.289818,49.399902 
	C80.235962,50.331402 85.293274,55.144951 86.594482,63.350441 
	C86.620689,63.710754 86.835213,63.882473 86.754471,63.771286 
z"/>
</svg>