<svg version="1.1" id="Layer_1" xmlns="http://www.w3.org/2000/svg" xmlns:xlink="http://www.w3.org/1999/xlink" x="0px" y="0px"
	 width="100%" viewBox="0 0 497 497" enable-background="new 0 0 497 497" xml:space="preserve">
<path fill="#FFFFFF" opacity="1.000000" stroke="none" 
	d="
M1.000000,166.000000 
	C1.000000,111.073433 1.000000,56.146866 1.000000,1.000000 
	C55.020695,1.000000 109.041687,1.000000 163.531479,1.468657 
	C164.000275,56.084930 164.000275,110.232544 164.000275,164.380157 
	C164.333511,164.379669 164.666763,164.379166 165.000000,164.378677 
	C165.000000,109.919113 165.000000,55.459557 165.000000,1.000000 
	C220.687561,1.000000 276.375122,1.000000 332.531494,1.468657 
	C333.000275,56.270885 333.000275,110.604454 333.000275,165.000000 
	C388.485931,165.000000 443.242981,165.000000 498.000000,165.000000 
	C498.000000,165.000000 498.000000,165.500000 497.531342,165.750137 
	C476.788361,166.000275 456.514008,165.984421 436.239685,166.003815 
	C401.842743,166.036743 367.445770,166.091904 332.661987,166.085876 
	C331.496918,166.066635 330.718628,166.099213 329.479004,166.070679 
	C219.678452,166.006393 110.339226,166.003189 1.000000,166.000000 
M69.159195,78.955986 
	C69.527420,77.166962 69.709236,75.314095 70.296333,73.600037 
	C72.758316,66.412193 80.646042,62.876827 86.677490,66.686806 
	C89.287704,68.335640 90.989891,71.421936 93.205711,73.971703 
	C95.668648,73.971703 98.594925,73.971703 102.324646,73.971703 
	C100.852112,70.581009 100.099625,67.404121 98.310005,64.998909 
	C92.988243,57.846581 85.396637,55.939564 76.958298,57.288647 
	C69.130730,58.540085 63.648144,62.926651 60.898796,70.534874 
	C58.175671,78.070541 58.348831,85.582092 61.111828,93.015106 
	C64.456566,102.013107 74.232407,107.211769 84.689919,105.734154 
	C94.386795,104.364014 100.558708,98.182083 101.334572,88.906334 
	C100.183060,88.853249 99.038033,88.770699 97.892059,88.754471 
	C96.081863,88.728813 94.271027,88.747635 92.598587,88.747635 
	C89.341377,95.596756 85.956215,97.973015 80.460358,97.458397 
	C74.726845,96.921524 71.156082,93.476440 69.712837,86.732193 
	C69.231262,84.481880 69.292587,82.115395 69.159195,78.955986 
z"/>
<path fill="#FFFFFF" opacity="1.000000" stroke="none" 
	d="
M1.000000,335.000000 
	C1.000000,335.000000 1.000000,334.500000 1.468657,334.250000 
	C55.994358,333.978943 110.051399,333.957855 164.322479,333.955933 
	C164.536530,333.975037 164.951309,333.862457 165.417847,333.915710 
	C188.173737,333.979248 210.463120,334.011719 232.752457,333.994568 
	C266.184540,333.968842 299.616608,333.908234 333.256042,333.918762 
	C333.463379,333.975037 333.891418,333.936859 334.366516,333.956848 
	C389.227722,333.984528 443.613861,333.992249 498.000000,334.000000 
	C498.000000,334.000000 498.000000,334.500000 497.531342,334.750000 
	C442.396149,335.000000 387.729645,335.000000 333.000000,335.000000 
	C333.000000,389.818085 333.000000,443.909058 333.000000,498.000000 
	C277.312439,498.000000 221.624878,498.000000 165.468658,497.531342 
	C165.000000,443.463715 165.000000,389.864746 165.000000,335.821899 
	C220.475250,335.821899 275.425964,335.821899 330.376648,335.821899 
	C330.375671,335.547943 330.374695,335.273956 330.373718,335.000000 
	C220.582474,335.000000 110.791237,335.000000 1.000000,335.000000 
z"/>
<path fill="#D4E9FF" opacity="1.000000" stroke="none" 
	d="
M498.000000,333.531342 
	C443.613861,333.992249 389.227722,333.984528 334.416351,333.495117 
	C333.991119,277.752899 333.991119,222.492416 333.991119,167.000000 
	C389.051666,167.000000 443.525848,167.000000 498.000000,167.000000 
	C498.000000,222.354233 498.000000,277.708466 498.000000,333.531342 
z"/>
<path fill="#D4E9FF" opacity="1.000000" stroke="none" 
	d="
M164.108429,333.936768 
	C110.051399,333.957855 55.994358,333.978943 1.468657,334.000000 
	C1.000000,278.645782 1.000000,223.291550 1.468657,167.468658 
	C55.868271,167.000000 109.799225,167.000000 164.000000,167.000000 
	C164.000000,169.343094 163.998917,171.148788 164.000137,172.954483 
	C164.036087,226.615250 164.072281,280.276001 164.108429,333.936768 
z"/>
<path fill="#000000" opacity="1.000000" stroke="none" 
	d="
M498.000000,164.531342 
	C443.242981,165.000000 388.485931,165.000000 333.000275,165.000000 
	C333.000275,110.604454 333.000275,56.270885 333.000122,1.468657 
	C387.926788,1.000000 442.853546,1.000000 498.000000,1.000000 
	C498.000000,55.354031 498.000000,109.708359 498.000000,164.531342 
z"/>
<path fill="#FFFFFF" opacity="1.000000" stroke="none" 
	d="
M164.000000,498.000000 
	C109.739891,498.000000 55.479778,498.000000 1.000000,498.000000 
	C1.000000,444.312653 1.000000,390.624969 1.468657,336.468658 
	C55.937347,336.000000 109.937378,336.000000 164.000000,336.000000 
	C164.000000,390.485077 164.000000,444.242554 164.000000,498.000000 
z"/>
<path fill="#FFFFFF" opacity="1.000000" stroke="none" 
	d="
M498.000000,336.000000 
	C498.000000,389.927460 498.000000,443.854889 498.000000,498.000000 
	C443.645966,498.000000 389.291656,498.000000 334.468292,497.531342 
	C333.999268,443.395264 333.999268,389.727814 333.999268,336.000000 
	C389.152283,336.000000 443.576141,336.000000 498.000000,336.000000 
M394.969940,429.651550 
	C396.164215,434.080139 397.358521,438.508728 398.527924,442.845093 
	C401.930664,442.845093 404.888519,442.845093 408.014282,442.845093 
	C410.831940,432.867065 413.619598,422.995300 416.407227,413.123566 
	C416.798645,413.183655 417.190063,413.243744 417.581451,413.303864 
	C420.346344,423.145386 423.111237,432.986908 425.844543,442.716095 
	C429.262970,442.716095 432.353882,442.716095 435.474640,442.716095 
	C439.606598,427.082855 443.667816,411.717346 447.777710,396.167542 
	C444.216034,396.167542 440.967163,396.167542 437.603302,396.167542 
	C435.238861,406.815125 432.929108,417.216492 430.619324,427.617859 
	C427.349213,419.418793 425.168701,411.200562 423.053040,402.965637 
	C421.038330,395.123779 421.068085,395.116119 412.562897,396.390564 
	C409.823944,406.902863 407.059326,417.513702 404.294708,428.124573 
	C403.986298,428.062653 403.677856,428.000732 403.369446,427.938843 
	C401.011047,417.311768 398.652618,406.684692 396.334778,396.240356 
	C392.702484,396.240356 389.507843,396.240356 386.090637,396.240356 
	C389.071716,407.375488 391.946045,418.111847 394.969940,429.651550 
z"/>
<path fill="#000000" opacity="1.000000" stroke="none" 
	d="
M164.322479,333.955902 
	C164.072281,280.276001 164.036087,226.615250 164.000137,172.954483 
	C163.998917,171.148788 164.000000,169.343094 164.000000,167.000000 
	C109.799225,167.000000 55.868271,167.000000 1.468657,167.000000 
	C1.000000,167.000000 1.000000,166.500000 1.000000,166.250000 
	C110.339226,166.003189 219.678452,166.006393 329.258484,166.436920 
	C327.670074,166.909363 325.840881,166.993607 324.011688,166.993866 
	C272.882629,167.000977 221.753601,166.999573 170.624557,166.999573 
	C168.854691,166.999573 167.084824,166.999573 164.951309,166.999573 
	C164.951309,223.004883 164.951309,278.433685 164.951309,333.862457 
	C164.951309,333.862457 164.536530,333.975037 164.322479,333.955902 
z"/>
<path fill="#000000" opacity="1.000000" stroke="none" 
	d="
M164.250000,498.000000 
	C164.000000,444.242554 164.000000,390.485077 164.000000,336.000000 
	C109.937378,336.000000 55.937347,336.000000 1.468657,336.000000 
	C1.000000,336.000000 1.000000,335.500000 1.000000,335.250000 
	C110.791237,335.000000 220.582474,335.000000 330.373718,335.000000 
	C330.374695,335.273956 330.375671,335.547943 330.376648,335.821899 
	C275.425964,335.821899 220.475250,335.821899 165.000000,335.821899 
	C165.000000,389.864746 165.000000,443.463715 165.000000,497.531342 
	C165.000000,498.000000 164.500000,498.000000 164.250000,498.000000 
z"/>
<path fill="#000000" opacity="1.000000" stroke="none" 
	d="
M498.000000,166.750000 
	C443.525848,167.000000 389.051666,167.000000 333.991119,167.000000 
	C333.991119,222.492416 333.991119,277.752899 333.941284,333.475128 
	C333.891418,333.936859 333.463379,333.975037 333.235657,333.460968 
	C333.021576,277.343842 333.035217,221.740784 333.048828,166.137726 
	C367.445770,166.091904 401.842743,166.036743 436.239685,166.003815 
	C456.514008,165.984421 476.788361,166.000275 497.531342,166.000137 
	C498.000000,166.000000 498.000000,166.500000 498.000000,166.750000 
z"/>
<path fill="#000000" opacity="1.000000" stroke="none" 
	d="
M498.000000,335.750000 
	C443.576141,336.000000 389.152283,336.000000 333.999268,336.000000 
	C333.999268,389.727814 333.999268,443.395264 333.999634,497.531342 
	C334.000000,498.000000 333.500000,498.000000 333.250000,498.000000 
	C333.000000,443.909058 333.000000,389.818085 333.000000,335.000000 
	C387.729645,335.000000 442.396149,335.000000 497.531342,335.000000 
	C498.000000,335.000000 498.000000,335.500000 498.000000,335.750000 
z"/>
<path fill="#000000" opacity="1.000000" stroke="none" 
	d="
M164.750000,1.000000 
	C165.000000,55.459557 165.000000,109.919113 165.000000,164.378677 
	C164.666763,164.379166 164.333511,164.379669 164.000275,164.380157 
	C164.000275,110.232544 164.000275,56.084930 164.000137,1.468657 
	C164.000000,1.000000 164.500000,1.000000 164.750000,1.000000 
z"/>
<path fill="#B762D1" opacity="1.000000" stroke="none" 
	d="
M332.661987,166.085876 
	C333.035217,221.740784 333.021576,277.343842 333.028320,333.404663 
	C299.616608,333.908234 266.184540,333.968842 232.752457,333.994568 
	C210.463120,334.011719 188.173737,333.979248 165.417847,333.915710 
	C164.951309,278.433685 164.951309,223.004883 164.951309,166.999573 
	C167.084824,166.999573 168.854691,166.999573 170.624557,166.999573 
	C221.753601,166.999573 272.882629,167.000977 324.011688,166.993866 
	C325.840881,166.993607 327.670074,166.909363 329.719818,166.498016 
	C330.718628,166.099213 331.496918,166.066635 332.661987,166.085876 
M266.890656,273.987457 
	C266.925354,272.998322 267.357880,271.769043 266.929504,271.059479 
	C264.351562,266.789368 262.001312,262.270752 258.768219,258.533051 
	C253.798492,252.787659 253.995834,247.936203 258.861450,242.196793 
	C262.620117,237.763153 265.368866,232.473328 268.605225,227.504898 
	C261.144165,225.510986 256.335205,227.210617 253.684799,234.124954 
	C252.425369,237.410522 250.072906,240.277100 247.883530,243.879913 
	C245.420029,239.762863 243.373276,236.378952 241.362396,232.973846 
	C237.374649,226.221268 235.104462,225.376709 226.751907,227.816010 
	C230.725113,234.033676 234.490829,240.280609 238.637787,246.263306 
	C240.638077,249.149033 240.558395,251.302872 238.609787,254.170929 
	C234.367233,260.415283 230.497650,266.913025 226.410263,273.411133 
	C233.501221,275.279449 238.240005,273.804504 241.056030,267.260223 
	C242.502975,263.897583 244.967026,260.972595 247.231949,257.444000 
	C249.523804,261.092834 251.771744,263.874146 253.147842,267.035065 
	C255.704742,272.908295 259.804810,275.256012 266.890656,273.987457 
z"/>
<path fill="#060606" opacity="1.000000" stroke="none" 
	d="
M69.132462,79.378998 
	C69.292587,82.115395 69.231262,84.481880 69.712837,86.732193 
	C71.156082,93.476440 74.726845,96.921524 80.460358,97.458397 
	C85.956215,97.973015 89.341377,95.596756 92.598587,88.747635 
	C94.271027,88.747635 96.081863,88.728813 97.892059,88.754471 
	C99.038033,88.770699 100.183060,88.853249 101.334572,88.906334 
	C100.558708,98.182083 94.386795,104.364014 84.689919,105.734154 
	C74.232407,107.211769 64.456566,102.013107 61.111828,93.015106 
	C58.348831,85.582092 58.175671,78.070541 60.898796,70.534874 
	C63.648144,62.926651 69.130730,58.540085 76.958298,57.288647 
	C85.396637,55.939564 92.988243,57.846581 98.310005,64.998909 
	C100.099625,67.404121 100.852112,70.581009 102.324646,73.971703 
	C98.594925,73.971703 95.668648,73.971703 93.205711,73.971703 
	C90.989891,71.421936 89.287704,68.335640 86.677490,66.686806 
	C80.646042,62.876827 72.758316,66.412193 70.296333,73.600037 
	C69.709236,75.314095 69.527420,77.166962 69.132462,79.378998 
z"/>
<path fill="#070707" opacity="1.000000" stroke="none" 
	d="
M394.895142,429.249878 
	C391.946045,418.111847 389.071716,407.375488 386.090637,396.240356 
	C389.507843,396.240356 392.702484,396.240356 396.334778,396.240356 
	C398.652618,406.684692 401.011047,417.311768 403.369446,427.938843 
	C403.677856,428.000732 403.986298,428.062653 404.294708,428.124573 
	C407.059326,417.513702 409.823944,406.902863 412.562897,396.390564 
	C421.068085,395.116119 421.038330,395.123779 423.053040,402.965637 
	C425.168701,411.200562 427.349213,419.418793 430.619324,427.617859 
	C432.929108,417.216492 435.238861,406.815125 437.603302,396.167542 
	C440.967163,396.167542 444.216034,396.167542 447.777710,396.167542 
	C443.667816,411.717346 439.606598,427.082855 435.474640,442.716095 
	C432.353882,442.716095 429.262970,442.716095 425.844543,442.716095 
	C423.111237,432.986908 420.346344,423.145386 417.581451,413.303864 
	C417.190063,413.243744 416.798645,413.183655 416.407227,413.123566 
	C413.619598,422.995300 410.831940,432.867065 408.014282,442.845093 
	C404.888519,442.845093 401.930664,442.845093 398.527924,442.845093 
	C397.358521,438.508728 396.164215,434.080139 394.895142,429.249878 
z"/>
<path fill="#040205" opacity="1.000000" stroke="none" 
	d="
M266.462830,273.997681 
	C259.804810,275.256012 255.704742,272.908295 253.147842,267.035065 
	C251.771744,263.874146 249.523804,261.092834 247.231949,257.444000 
	C244.967026,260.972595 242.502975,263.897583 241.056030,267.260223 
	C238.240005,273.804504 233.501221,275.279449 226.410263,273.411133 
	C230.497650,266.913025 234.367233,260.415283 238.609787,254.170929 
	C240.558395,251.302872 240.638077,249.149033 238.637787,246.263306 
	C234.490829,240.280609 230.725113,234.033676 226.751907,227.816010 
	C235.104462,225.376709 237.374649,226.221268 241.362396,232.973846 
	C243.373276,236.378952 245.420029,239.762863 247.883530,243.879913 
	C250.072906,240.277100 252.425369,237.410522 253.684799,234.124954 
	C256.335205,227.210617 261.144165,225.510986 268.605225,227.504898 
	C265.368866,232.473328 262.620117,237.763153 258.861450,242.196793 
	C253.995834,247.936203 253.798492,252.787659 258.768219,258.533051 
	C262.001312,262.270752 264.351562,266.789368 266.929504,271.059479 
	C267.357880,271.769043 266.925354,272.998322 266.462830,273.997681 
z"/>
</svg>